<?xml version="1.0" encoding="utf-8"?>
<!-- Generator: Adobe Illustrator 25.0.0, SVG Export Plug-In . SVG Version: 6.00 Build 0)  -->
<svg version="1.1" id="Capa_1" xmlns="http://www.w3.org/2000/svg" xmlns:xlink="http://www.w3.org/1999/xlink" x="0px" y="0px"
	 viewBox="0 0 33 33" style="enable-background:new 0 0 33 33;" xml:space="preserve">
<style type="text/css">
	.st0{fill:none;stroke:#0000FF;stroke-width:0.75;stroke-linecap:round;stroke-linejoin:round;stroke-miterlimit:10;}
</style>
<path class="st0" d="M16,6.1c-2.7,0-5.4-0.1-8.2,0c-1.1,0,0.4,9.5,0.9,10.5c0.9,2.1,3,3.3,4.7,4c0.5,0.2,3.9,2.1,3.9,0.5
	c0-2.5-1.4-4.9-2.5-6.7c-2-3.2-3.4-5.7-6.6-4.9c-1.7,0.4-2.8,1.3-3,3.7c-0.1,1.5,0.2,3,0.8,4.3c1.6,3.4,3.7,5.7,6.6,5.7
	c0.6,0,2.6,0.1,2.5-1.5c-0.1-1.5-1-3.2-1.5-4.4c-0.9-2.2-2.1-4.1-3.1-6.2c-1-2-2.1-3.8-3.1-5.7C6.5,3.9,6.7,3.6,7.7,2.5
	c2-2.3,5.5-2.2,7.9-1.8c4.3,0.7,5.8,9.3,5.8,14.1c0,0.3,0.1,1,0,1.3c-0.1,0.3-0.6,0-0.7,0c-1.2-0.4-2.4-1-3.5-1.6
	c-1-0.6-4.1-1.9-4.4-3.9c-0.1-0.8,2.4-0.9,2.7-1c2-0.3,5-0.8,6.9,0.4c2.2,1.4,4,4.4,4.4,7.7c0.4,3.3,0.5,7.4-0.9,10.4
	c-1.4,3-4.3,4.7-6.9,4.4c-3-0.4-4.9-4.2-6.2-7.6c-0.8-2-1.8-5.4-1.4-7.8c0.5-3.1,7.6-3.9,9.2-2.7c0.4,0.3,0.9,1.3,0.9,2
	c-0.1,1.6-4.9,1.3-5.7,1.3c-5.1,0.1-10-2.4-12.5-8.9C2.9,7.5,2.6,6.1,2.6,4.7c0-0.2-0.1-1.5-0.1-1.3C2,4.8,1.9,6.5,1.6,7.9
	C0.2,14.5-1,27.2,6.1,28c2.4,0.3,5.7,1.1,6.1-3.3c0.3-2.6,0.6-6-0.9-8.1c-1.4-1.8-3.3-3-4.6-0.6c-0.6,1-0.4,2.1,0,3.3
	c1.2,4.2,3.4,7.5,6.8,7.8c1,0.1,1.9,0,2.9,0c1.9,0,3-1.1,4.5-2.8c2.7-3,5.3-6.6,6.6-11c0.5-1.7,1-4.3,2.7-3.9
	c1.9,0.4,2.2,5.2,2.2,7.1c0,1.2,0.1,1.6-0.6,2.2c-1.5,1.1-3.2,2.1-4.9,2.5c-2.9,0.7-5.2-0.2-7-3.5c-0.4-0.7-0.3-1.8-0.3-2.7
	c0-2.1,0-3.8,1.1-5.4c1.1-1.6,2.5-2.2,4-2.2"/>
</svg>
