<svg width="115" height="11" viewBox="0 0 115 11" fill="none" xmlns="http://www.w3.org/2000/svg">
<path d="M4.37996 4.12817C14.5055 4.12817 24.5479 3.73369 34.6118 3.60702C41.9503 3.51465 49.2675 2.99469 56.6285 2.82529C64.286 2.64907 71.9573 1.65906 79.4902 1.52241C88.7608 1.35424 97.969 1.00126 107.281 1.00126C108.644 1.00126 116.788 0.877455 113.008 3.08586C110.481 4.56237 105.64 4.12817 102.54 4.12817C91.2599 4.12817 79.8264 4.79431 68.787 6.21277C55.4166 7.93074 42.4648 9.86083 28.6969 9.86083C22.2812 9.86083 15.8656 9.86083 9.4499 9.86083C7.44272 9.86083 1.86408 10.4055 1 9.33968" stroke="#0000FF" stroke-width="0.5" stroke-linecap="round"/>
</svg>
