<svg width="47" height="28" viewBox="0 0 47 28" fill="none" xmlns="http://www.w3.org/2000/svg">
<path d="M1.01415 18.4759C3.53699 12.4647 6.46597 6.67493 9.75302 1.03076C12.0954 7.41862 12.8927 14.306 12.0982 21.0312" stroke="#0000FF" stroke-width="1.5" stroke-linecap="round" stroke-linejoin="round"/>
<path d="M4.6582 12.9775L11.1682 14.4401" stroke="#0000FF" stroke-width="1.5" stroke-linecap="round" stroke-linejoin="round"/>
<path d="M46.2149 12.0895C45.0634 12.2867 43.969 11.6501 42.8188 11.2614C41.7307 10.8867 40.1591 10.9244 39.7224 11.9986C39.0642 13.4789 41.0949 14.5865 42.3537 15.6508C44.2932 17.4543 44.5344 20.4393 42.8891 22.5445C41.0856 24.484 38.0867 24.7872 35.9814 23.1419" stroke="#0000FF" stroke-width="1.5" stroke-linecap="round" stroke-linejoin="round"/>
<path d="M16.7301 20.1189L19.8224 6.35501C19.8642 6.16901 19.9199 5.92101 20.0857 5.76287C20.3135 5.61866 20.6033 5.48838 20.8513 5.54409C22.6227 5.48618 24.1422 7.13012 24.5379 8.84727C24.9135 10.3645 24.5513 11.9765 23.5148 13.1113C22.4163 14.2322 20.727 14.504 19.3365 13.7357" stroke="#0000FF" stroke-width="1.5" stroke-linecap="round" stroke-linejoin="round"/>
<path d="M27.2644 22.2249L29.7443 7.99779C31.8474 7.6236 33.7172 9.73704 33.9535 11.8742C34.0748 13.0738 33.7342 14.2999 32.9533 15.1665C32.1585 16.0952 30.8412 16.4505 29.6911 16.0618" stroke="#0000FF" stroke-width="1.5" stroke-linecap="round" stroke-linejoin="round"/>
</svg>
