<svg width="55" height="21" viewBox="0 0 55 21" fill="none" xmlns="http://www.w3.org/2000/svg">
<path d="M1.25924 18.6221C1.25924 13.3391 1.04199 7.98193 1.04199 2.61845C1.04199 1.3637 3.96282 2 5 2C13.2721 2 21.2128 0.725135 29.4286 1.36326C36.0279 1.87582 42.5856 1.83125 49.1737 0.92877C49.4211 0.894887 50.6745 0.419504 50.791 0.590834C51.0914 1.03255 51.0083 1.67816 51.0083 2.18396C51.0083 4.27654 51.6671 6.55981 51.9255 8.65302C52.153 10.4956 52.5925 12.3522 52.9152 14.1807C53.0545 14.9701 54.0893 16.8111 53.9531 17.5601C53.9252 17.7137 44.7498 16.7985 44.5633 16.7876C33.5392 16.1429 22.4155 16.8713 11.4697 18.0428C8.53199 18.3573 5.04862 18.1637 2.34546 19.5153C1.99823 19.6889 1.91446 19.9518 1.64545 20.167C1.23097 20.4986 1.25924 19.1529 1.25924 18.6221Z" stroke="#0000FF" stroke-linecap="round"/>
</svg>
