<svg width="135" height="11" viewBox="0 0 135 11" fill="none" xmlns="http://www.w3.org/2000/svg">
<path d="M131.011 1.12603C124.72 1.12603 118.428 1.12603 112.137 1.12603C105.243 1.12603 98.1465 0.657492 91.293 1.52722C76.2939 3.43066 61.4492 4.89841 46.3226 3.91616C41.5982 3.60939 36.8112 3.63145 32.0984 4.08029C25.1185 4.74504 18.2196 4.97303 11.1997 5.13799C7.99417 5.21331 4.83989 6.0498 1.68042 6.0498C0.164466 6.0498 1.57196 4.74146 2.15456 4.40854C2.77911 4.05166 3.19565 4.10036 3.97818 4.08029C6.87749 4.00595 9.753 3.75204 12.6768 3.75204C22.7842 3.75204 32.8967 6.51962 42.6936 8.83993C49.0612 10.3481 55.6213 9.98881 62.1151 9.98881C71.1834 9.98881 79.9078 7.28904 88.8494 6.12274C92.0635 5.70351 95.2707 5.72155 98.5146 5.72155C100.658 5.72155 102.695 6.53983 104.788 6.96161C108.38 7.68567 112.129 7.99431 115.766 8.49345C119.502 9.00625 124.33 9.15506 128.057 8.60286C129.681 8.36225 131.324 7.69105 132.963 7.69105C133.301 7.69105 134.354 7.72095 133.637 7.3628" stroke="#0000FF" stroke-linecap="round"/>
</svg>
