<svg xmlns="http://www.w3.org/2000/svg" viewBox="0 0 498.15 384.36"><defs><style>.cls-1,.cls-2,.cls-3,.cls-4{fill:none;}.cls-1,.cls-3{stroke:#000;}.cls-1,.cls-3,.cls-4{stroke-miterlimit:10;}.cls-1{stroke-dasharray:10;}.cls-4{stroke:blue;}</style></defs><g id="Capa_2" data-name="Capa 2"><g id="Capa_1-2" data-name="Capa 1"><path class="cls-1" d="M21,52l.21-4.67H69L90.77,98.4,112,53.28l45.67,2.17q9.84,75.92,19.7,151.84L134.26,205l-8.16-57.08L107.62,187H77.18q-10.07-21.75-20.12-43.49l-.54,62-42.4,2.18q3.27-74.4,6.55-148.78"/><path class="cls-1" d="M294.63,155.51l-11.25-36.1-25.62-.71-32,43.41L193,155.71,252.06,4.81,299.75.54Q320,75.29,340.32,150l-43.41,12.81c0-.12-.07-.24-.11-.36"/><path class="cls-1" d="M470.47,64c3.12,1.65,6.24,3.28,9.36,4.92q-2.85,33.1-5.69,66.2l-17.8,8.54L487.66,187l-51.25,18.5-22.06-34.88q-5.7,18.51-11.39,37l-44.13-7.12q4.62-75.45,9.25-150.9L422.89,39l42.26,22.18"/><path class="cls-1" d="M201.81,352.17l53.75-9.27q.34-78.64.71-157.3l-66.91-6.4q2.13,87.18,4.27,174.38"/><path class="cls-1" d="M402.17,361.4c.27,1,.53,1.91.79,2.86l-42,12.81q-7.11-21.36-14.23-42.71l-27.05,1.42q-13.51,21-27.05,42l-32-9.25,51.24-150.19,49.83-4.27q19.27,70.14,38.56,140.3"/><path d="M495.5,50.61a12.2,12.2,0,0,0-2.87-.79c-2.68-.51-6,2.38-5.81,4.89a3.8,3.8,0,0,1-3.31,4.18c-1.21.23-2.44.38-3.67.53l-14.69,1.74c1.77.94,3.55,1.87,5.32,2.79l5.36,0c1.12,0,2.24.13,3.36.07a2.89,2.89,0,0,0,3-2.21,2.84,2.84,0,0,1,.59-1,2,2,0,0,1,1.65-.76c2.31.07,4.62.06,6.92.25A6,6,0,0,0,497.06,58,4.8,4.8,0,0,0,495.5,50.61ZM478.28,62a.92.92,0,0,1,.19-1.25,1,1,0,0,1,1.49.15Zm1.55.48a1,1,0,0,1-1.34-.14l1.64-1.18A1,1,0,0,1,479.83,62.48Zm16.42-6.78A3.94,3.94,0,1,1,493,51.13,3.93,3.93,0,0,1,496.25,55.7Z"/><path d="M491.42,67.62c-2.5-.87-5-1.67-7.56-2.45a2.22,2.22,0,0,1-1.66-1.91c0-.15,0-.31-.08-.55-.75,1.17-1.88,1.39-3.16,1.56l.42.22c1.15.66,2.33,1.27,3.42,2a3.75,3.75,0,0,1,1,1.34,3.68,3.68,0,0,1,0,3.16,3.66,3.66,0,0,0,0,3,9.54,9.54,0,0,0,1.3,2.17c1.24,1.51,3,1.82,4.83,1.84a4.67,4.67,0,0,0,3.39-1.16C496.71,73.72,494.67,68.75,491.42,67.62Zm1.64,5.62a3.83,3.83,0,1,1-3.1-4.43A3.82,3.82,0,0,1,493.06,73.24Z"/><path d="M479.11,59.29l-3.13.36c-1.54.19-3.09.38-4.64.55a1.4,1.4,0,0,1-.73-.12q-8-4-16-8l-.39-.22a1.71,1.71,0,0,1,2.38-.94c2,.75,4,1.53,6,2.29q7,2.63,14,5.23c.79.3,1.61.48,2.42.71Z"/><path d="M426.07,369a12.51,12.51,0,0,0-1.25-2.71c-1.34-2.36-5.72-3.07-7.48-1.27a3.79,3.79,0,0,1-5.33.17c-1-.78-1.87-1.62-2.78-2.47l-9-8.38c.65,2.34,1.29,4.69,1.93,7l1,1.2c.73.85,1.34,1.8,2.11,2.61a2.9,2.9,0,0,0,3.65.9,2.93,2.93,0,0,1,1.15-.2,2,2,0,0,1,1.64.77c1.44,1.81,2.94,3.57,4.28,5.45a6,6,0,0,0,5.41,2.85A4.8,4.8,0,0,0,426.07,369Zm-19.18-4.3a1,1,0,0,1-.76-1.12l2,.5A1,1,0,0,1,406.89,364.73Zm-.63-1.5a.9.9,0,0,1,1.07-.66,1,1,0,0,1,.85,1.23Zm16.4,9.66a3.94,3.94,0,1,1,1.41-5.41A3.93,3.93,0,0,1,422.66,372.89Z"/><path d="M410.44,376.89c-.95-2.47-2-4.91-3-7.35a2.23,2.23,0,0,1,.39-2.5l.37-.41c-1.38.17-2.28-.55-3.23-1.41.06.23.09.35.11.46.23,1.3.53,2.59.67,3.9a3.5,3.5,0,0,1-.35,1.66,3.66,3.66,0,0,1-2.39,2.07,3.68,3.68,0,0,0-2.28,1.9,9.84,9.84,0,0,0-.81,2.4c-.35,1.92.54,3.46,1.71,4.87a4.61,4.61,0,0,0,3.07,1.84C409.2,384.87,411.68,380.11,410.44,376.89Zm-3.23,4.89a3.83,3.83,0,1,1,1.39-5.23A3.83,3.83,0,0,1,407.21,381.78Z"/><path d="M408.86,362.11l-2.3-2.15c-1.14-1.07-2.28-2.12-3.41-3.2a1.34,1.34,0,0,1-.39-.63q-2.1-8.69-4.19-17.36c0-.15-.06-.29-.08-.44a1.71,1.71,0,0,1,2.25,1.21c.73,2,1.43,4.06,2.15,6.09q2.52,7,5.06,14.09c.28.79.68,1.55,1,2.31Z"/><path d="M192.59,359.51l9.22-7.34-8.18,1.41c-.95.59-2,1.06-2.89,1.7-1.19.83-1.93,1.9-1.43,3.48a3,3,0,0,1,0,1.16,2,2,0,0,1-1,1.51c-2,1.16-4,2.39-6,3.43a6,6,0,0,0-3.61,4.93,4.8,4.8,0,0,0,5.2,5.45,12.17,12.17,0,0,0,2.86-.84c2.54-1,3.89-5.2,2.37-7.21a3.79,3.79,0,0,1,.61-5.29C190.66,361.06,191.62,360.28,192.59,359.51Zm.46-1.85a1,1,0,0,1-1.34.65l.85-1.81A.9.9,0,0,1,193.05,357.66ZM191,356.9a1,1,0,0,1,1.22-.59c-.27.64-.52,1.26-.78,1.87A1,1,0,0,1,191,356.9Zm-5.25,16.59a3.94,3.94,0,1,1,2.18-5.1A3.94,3.94,0,0,1,185.73,373.49Z"/><path d="M190.31,355c-1.32,0-2.64.14-4,.09a3.55,3.55,0,0,1-1.59-.59,3.71,3.71,0,0,1-1.7-2.67,3.67,3.67,0,0,0-1.54-2.54,10.17,10.17,0,0,0-2.25-1.15c-1.85-.63-3.51,0-5.07,1a4.72,4.72,0,0,0-2.28,2.77c-1.2,4.38,3.15,7.53,6.51,6.79,2.58-.58,5.15-1.23,7.71-1.9a2.22,2.22,0,0,1,2.42.76l.35.42a3.87,3.87,0,0,1,1.87-3ZM179,356.85a3.83,3.83,0,1,1,2.15-5A3.84,3.84,0,0,1,179,356.85Z"/><path d="M193.28,359.23l2.47-2c1.22-1,2.43-2,3.66-2.91a1.37,1.37,0,0,1,.68-.29l17.79-1.59.44,0a1.69,1.69,0,0,1-1.52,2c-2.11.43-4.23.82-6.34,1.24q-7.35,1.44-14.69,2.92c-.82.17-1.62.45-2.43.67Z"/><path d="M19.93,49.56c-.44-1-.75-2.11-1.24-3.12a2.91,2.91,0,0,0-3.22-1.94,2.69,2.69,0,0,1-1.15-.15A1.91,1.91,0,0,1,13,43.13c-.84-2.15-1.76-4.28-2.47-6.47a6,6,0,0,0-4.33-4.32A4.8,4.8,0,0,0,0,36.65a12.46,12.46,0,0,0,.39,3C1,42.27,4.94,44.24,7.16,43a3.79,3.79,0,0,1,5.14,1.42c.69,1,1.31,2.1,1.92,3.17l6.45,11.26L21,52C20.62,51.17,20.28,50.36,19.93,49.56ZM6.16,41.66a3.94,3.94,0,1,1,3-4.72A3.92,3.92,0,0,1,6.16,41.66ZM16,48.37a1,1,0,0,1-.45-1.43l1.67,1.11A.9.9,0,0,1,16,48.37Zm1.46-.64-1.73-1a1,1,0,0,1,1.33-.24A1,1,0,0,1,17.45,47.73Z"/><path d="M27.34,31A4.69,4.69,0,0,0,25,28.37c-4.15-1.86-7.93,2-7.7,5.4.18,2.64.43,5.28.7,7.91A2.24,2.24,0,0,1,16.84,44l-.48.28c1.38.24,2,1.19,2.67,2.3,0-.24,0-.36,0-.47.16-1.31.26-2.63.51-3.93a3.62,3.62,0,0,1,.82-1.48,3.7,3.7,0,0,1,2.9-1.27A3.71,3.71,0,0,0,26,38.25a9.94,9.94,0,0,0,1.49-2C28.43,34.47,28,32.73,27.34,31Zm-3.86,6.48A3.83,3.83,0,1,1,26.39,33,3.82,3.82,0,0,1,23.48,37.52Z"/><path d="M14.4,48.35,16,51.08c.78,1.36,1.56,2.71,2.32,4.07a1.3,1.3,0,0,1,.18.71q-.56,8.92-1.13,17.83c0,.15,0,.3-.05.44a1.7,1.7,0,0,1-1.79-1.82c-.1-2.15-.17-4.3-.26-6.46-.21-5-.42-10-.66-14.95,0-.84-.19-1.68-.29-2.51Z"/><path d="M302,173.43a3.81,3.81,0,0,1-4.72-2.49c-.44-1.16-.82-2.34-1.19-3.52q-3.36-10.75-6.71-21.53c-.5-1.58-1-3.17-1.49-4.78a1.68,1.68,0,0,0-1.14,2.11c.61,3,1.23,6,1.83,9q1.18,6,2.36,12.05c.21,1.09.27,2.22.54,3.31.34,1.41,1.07,2.49,2.72,2.59a2.85,2.85,0,0,1,1.1.39,2,2,0,0,1,1,1.49c.36,2.28.8,4.55,1,6.85a6.06,6.06,0,0,0,3.29,5.15,4.8,4.8,0,0,0,7-2.87,12.91,12.91,0,0,0,.26-3C307.91,175.52,304.45,172.74,302,173.43ZM293.11,168a1,1,0,0,1-.11-1.35l1.46,1.4A1,1,0,0,1,293.11,168Zm1.58-.17c-.48-.5-.94-1-1.39-1.45a.9.9,0,0,1,1.26,0A1,1,0,0,1,294.69,167.81Zm8.09,15.07a3.95,3.95,0,1,1,3.9-4A3.94,3.94,0,0,1,302.78,182.88Z"/><path d="M291.19,167.45c-.07.23-.1.34-.14.45-.43,1.25-.82,2.52-1.34,3.72a3.51,3.51,0,0,1-1.13,1.27,3.69,3.69,0,0,1-3.1.62,3.68,3.68,0,0,0-2.92.52,9.48,9.48,0,0,0-1.89,1.68c-1.26,1.5-1.25,3.28-.93,5.09a4.63,4.63,0,0,0,1.75,3.11c3.66,2.71,8.17-.2,8.68-3.61.4-2.61.72-5.24,1-7.87a2.22,2.22,0,0,1,1.58-2c.14-.06.29-.1.52-.18C292,169.74,291.59,168.67,291.19,167.45ZM285,183a3.83,3.83,0,1,1,3.79-3.86A3.84,3.84,0,0,1,285,183Z"/><path d="M294.63,155.51c.72,2.32,1.45,4.63,2.17,7l-.3,1.7c-.14.82-.17,1.67-.25,2.51h-.14l-.93-3c-.46-1.49-.94-3-1.39-4.47a1.39,1.39,0,0,1,0-.73C294.06,157.48,294.35,156.49,294.63,155.51Z"/><line class="cls-2" x1="300.2" y1="143.22" x2="299.45" y2="141.09"/><path class="cls-3" d="M298,139l-10.16-28.86h-35.4l-27.6,42.6-21-4.2,51.6-139.2L292,7l37.8,136.8-27,9-4.09-11.61Z"/><path class="cls-3" d="M441.29,136.31l24.2-11.4,4.8-54-49.8-22.8-45.2,7.2-9.6,135.6,34.2,5.4,10.4-42,29.4,41.4,34.2-14.4Z"/><path class="cls-3" d="M197.52,185.42l4.8,154.8,40.8-5.4V190.22Z"/><polygon class="cls-3" points="168.76 197.46 138.16 195.66 128.56 124.86 102.76 178.86 79.96 178.26 52.36 123.06 50.16 197.46 17.56 199.26 26.4 69.47 26.62 66.19 27.16 58.26 64.96 59.46 91.56 122.46 117.76 63.06 147.16 64.26 168.76 197.46"/><polygon class="cls-3" points="392.79 358.99 365.79 367.99 350.79 325.39 315.39 325.39 287.79 367.99 266.79 363.79 318.39 224.59 354.99 222.19 388.23 342.5 389.23 346.11 392.79 358.99"/><path class="cls-4" d="M23,193.64A18.21,18.21,0,0,1,41.56,180.9a18.21,18.21,0,0,1,15.93,15.91c-8,2.55-16.53-1-23.74-5.2-2.75-1.62-5.6-3.51-6.89-6.43s-.21-7.09,2.88-7.94,6.09,4,3.45,5.77c-4.27.47-8.87.88-12.62-1.22S14.84,174,17.92,171a8.57,8.57,0,0,1,3.85-1.93,24.32,24.32,0,0,1,21.13,4.36,32.76,32.76,0,0,1-23,.92,27.14,27.14,0,0,1,25.72-6.5c-4.36-.24-8.88-.64-12.67-2.82s-6.61-6.64-5.53-10.87,7.19-6.64,10.18-3.46a9.78,9.78,0,0,1-9.73,6.9,13,13,0,0,1,16,.23L38,132.07l-2.06,28.54-6.49-55.27a110.41,110.41,0,0,0-9.09,28.46,89.38,89.38,0,0,1-.85-45.21A55,55,0,0,1,34.64,134.9C28,125.21,30,110.56,39,103a16.93,16.93,0,0,1,5.25,16.34c-2.85.62-5.27-2.81-4.71-5.67s3-4.93,5.51-6.43c2.11-1.27,4.72-2.32,7-1.33,2.8,1.22,3.52,5.21,2,7.88s-4.45,4.2-7.41,5a10.5,10.5,0,0,1-6.65-.06c-5.62-2.34-5.07-11.31-.38-15.19S50.94,99.41,57,99.37L28.47,96.08c-3.65-.42-7.55-1-10.34-3.35s-4-6.58-4-10.43c-.06-16.06,18.43-28.88,33.71-23.93s23,25.14,15.56,39.4a52.07,52.07,0,0,1-14.18-27A36.31,36.31,0,0,1,50.67,90,79.4,79.4,0,0,1,30,67.25a183.31,183.31,0,0,0-2.22,37.66c-5.38-6.43-1.71-17,5.22-21.68s15.81-5.18,24.18-5.5a142.91,142.91,0,0,1-8.78,48.64l23.66-22.58a123.85,123.85,0,0,1-10,28.54,59.46,59.46,0,0,1,11.09-31.47,49.91,49.91,0,0,1,6.24,38,31.43,31.43,0,0,1-13.31-13.48,42.17,42.17,0,0,1,5.37,21.11,85.15,85.15,0,0,1-15.1-18.77l13.35,29.8a164,164,0,0,0,8.13-29.09l5.83,28.52,4.11-38,3.91,9.46a21.54,21.54,0,0,0,9.84-14.06,112.39,112.39,0,0,1-1.21,51.23,15.15,15.15,0,0,1-6-6.57c-3.39,7.41-15.55,8.34-20,1.54,8.51-13,20-27.63,35.54-26.59a18.62,18.62,0,0,0-10.46,10.38,137.55,137.55,0,0,1,16.62-28,45,45,0,0,1-2.68,26.33,196.93,196.93,0,0,0,17.08-35.47,53.73,53.73,0,0,1-24.53,15.52l9.27-38c.87-3.55.88-8.59-2.68-9.4A30.51,30.51,0,0,0,104.69,102a38.32,38.32,0,0,0,27-3.44l-11.41,3.82,4.89-2L104.26,97a75,75,0,0,1,24.31-12.13L119.48,83a45.05,45.05,0,0,1,12.58-6.51L111.34,60.41a38.33,38.33,0,0,1,6.29,27.67l-3.41-4.81,2.66-4a33,33,0,0,1,13.19,32.1,58.08,58.08,0,0,1-11.12-27c-.35-2.52-.48-5.25.83-7.43,2.46-4.06,8.85-3.88,12.52-.87s5.29,7.78,6.75,12.3A50.91,50.91,0,0,1,126.74,63a8.64,8.64,0,0,1,6.43,8.33,21.38,21.38,0,0,1-18-8.51c3.07-6,12.53-5.59,17.32-.86s6.12,11.84,7.15,18.49c3,19.38,5.49,38.94,5.14,58.55l-4.56,1.14a94,94,0,0,1-10.06-31.51,27,27,0,0,1,6.18,17.23,14.12,14.12,0,0,1,.46-10.25l7.05,39.51c.64,3.59,1.33,7.31,3.43,10.29,1.72,2.42,4.24,4.16,6.12,6.46,4,4.91,4.65,11.68,5.11,18-5.43,2.39-12.13-4.47-9.62-9.84l-16.4,4.4a42.2,42.2,0,0,1,27.1-31.22c2.55,3.76.51,9.71-3.8,11.13a57.27,57.27,0,0,1-15.92-24.74c4.48-1.83,10.24,1.32,11.13,6.07a17.5,17.5,0,0,1-9.08,8.69,5.06,5.06,0,0,1-4,.3c-1.32-.64-1.95-2.14-2.44-3.53a112,112,0,0,1-5.8-25.61q-1.9,23.28-2.18,46.67c-.09,7.88.52,17,6.81,21.69s16.88,1.78,19.76-5.6"/></g></g></svg>