<svg width="825" height="174" viewBox="0 0 825 174" fill="none" xmlns="http://www.w3.org/2000/svg">
<path d="M118.768 49.3121C106.715 41.1582 89.7949 27.989 72.5902 25.3031C81.4048 28.2846 71.5241 45.8432 78.9422 49.8578C84.6485 52.946 75.0033 53.541 72.5902 53.541C58.1057 53.541 42.3427 55.1855 28.3278 57.2924C24.5129 57.8659 44.6194 77.0803 46.9805 78.9141C48.5037 80.0972 64.8286 89.6695 63.1126 91.3279C62.4762 91.9429 56.3274 92.0394 55.2482 92.2828C45.113 94.5683 34.839 96.2637 24.5973 98.3533C18.6358 99.5695 7.14137 100.471 1.81072 102.923C-5.91569 106.477 44.0261 125.969 48.0896 127.069C54.1948 128.721 63.7602 128.325 60.6928 133.958C58.4099 138.149 55.1093 141.894 53.4333 146.303C52.1143 149.773 50.2144 154.26 50.8119 157.898C51.3782 161.346 65.9208 154.541 66.7423 154.215C88.9469 145.417 112.295 136.458 131.069 124.408C133.93 122.572 137.547 118.355 141.555 121.066C148.073 125.476 151.709 135.532 152.343 141.324C152.8 145.498 148.303 158.117 157.687 154.897C174.455 149.143 192.12 141.499 206.486 133.344C212.004 130.212 217.189 125.668 223.223 123.044C228.279 120.846 231.393 139.99 231.894 142.893C232.156 144.41 230.692 152.855 232.701 153.942C234.096 154.697 240.207 150.415 241.574 149.85C255.996 143.887 270.607 137.027 283.618 129.729C285.648 128.59 291.374 122.294 294.003 122.294C298.54 122.294 307.748 138.049 310.236 140.574C316.134 146.559 310.42 148.691 323.04 140.983C332.521 135.193 342.651 128.91 348.448 121.066C349.409 119.767 349.567 115.557 350.364 116.906C354.868 124.522 364.867 130.266 368.815 137.982C372.387 144.962 391.95 130.191 395.232 127.478C400.427 123.182 400.532 123.323 404.115 128.174L404.306 128.433C410.951 137.423 423.659 145.839 426.387 155.989C426.592 156.751 425.743 160.217 427.496 160.217C433.326 160.217 448.167 147.85 452.097 145.485C462.778 139.056 477.114 132.456 485.974 124.75C488.12 122.883 488.571 119.719 490.915 118.133C491.62 117.656 504.066 132.743 504.93 133.889C509.725 140.257 504.43 146.199 515.516 141.324C528.613 135.565 542.453 129.786 553.527 122.294C561.386 116.978 559.356 121.286 562.904 127.137C566.9 133.726 569.861 140.26 569.861 147.394C569.861 150.963 578.818 145.395 580.347 144.666C587.349 141.327 594.145 137.558 601.722 134.844C602.994 134.389 608.42 130.597 609.082 130.547C612.715 130.274 626.771 152.208 629.046 154.488C633.609 159.061 640.837 165.075 642.355 170.721C642.794 172.357 641.347 174.119 643.665 172.085C657.751 159.734 670.27 147.07 681.374 133.412C686.597 126.988 682.005 119.055 691.86 129.66C699.098 137.45 707.156 144.772 716.461 151.487C717.118 151.961 719.134 155.306 719.587 155.306C721.268 155.306 725.518 149.143 726.141 148.417C733.767 139.532 739.928 129.931 745.499 120.384C750.33 112.104 753.441 113.733 764.958 117.929C768.903 119.366 774.982 119.679 776.755 122.976C777.577 124.506 778.863 125.919 780.788 126.932C781.921 127.528 785.192 120.046 785.426 119.566C789.232 111.742 792.804 103.639 795.609 95.625C795.94 94.6802 795.935 88.2702 797.827 87.9857C802.235 87.3232 807.771 87.9175 812.245 87.9175C815.915 87.9175 827.371 91.4653 823.034 88.5314C807.137 77.7777 800.016 60.723 779.78 52.8589C774.938 50.9775 789.743 29.5287 793.895 25.917C797.955 22.3858 784.36 25.3221 784.014 25.3713C750.851 30.0944 716.105 30.827 682.584 34.3065C670.746 35.5353 659.043 37.007 647.295 38.5354C645.885 38.7188 643.832 39.0832 642.455 38.5354C637.812 36.6876 638.361 25.3586 638.019 22.7795C637.939 22.1782 638.122 0.222221 634.793 1.02129C620.188 4.52713 606.388 12.5752 593.454 18.2096C579.876 24.1244 563.271 29.6228 552.721 38.0579C547.104 42.5488 537.075 35.3334 531.346 32.1239C518.575 24.9692 504.74 18.829 491.822 11.7981C490.981 11.3401 482.194 4.56808 481.74 4.56808C478.119 4.56808 471.775 10.494 468.834 11.8663L468.76 11.9008C453.372 19.0801 437.099 26.6722 424.471 36.0799C422.905 37.2466 415.581 47.7376 413.783 47.1295C410.013 45.8542 405.988 42.9512 402.693 41.1272C393.111 35.824 365.882 27.506 364.782 18.2096C364.364 14.6696 345.767 27.15 344.819 27.8268C336.774 33.5713 327.324 41.0574 325.057 49.1075C324.341 51.6497 325.409 54.3419 320.822 52.3133C301.047 43.5662 276.29 39.6383 260.63 26.5991C256.414 23.0894 253.424 21.416 246.816 25.3031C235.457 31.9853 225.715 37.4703 219.594 46.7885C217.477 50.0103 210.864 45.4458 208.704 43.4463C200.043 35.4284 192.629 29.2907 188.64 19.8465C188.171 18.7345 163.108 32.5234 161.014 33.6926C151.11 39.2228 141.706 44.6842 134.699 52.0404C128.953 58.0715 123.749 52.6816 118.768 49.3121Z" stroke="#0000FF" stroke-width="3" stroke-linecap="round"/>
</svg>
