<svg width="23" height="35" viewBox="0 0 23 35" fill="none" xmlns="http://www.w3.org/2000/svg">
<path d="M7.56445 1C7.56445 5.83153 7.5942 10.6862 8.35219 15.471C8.61807 17.1494 8.87735 18.7378 8.87735 20.4308" stroke="#FDFDFF" stroke-width="2" stroke-linecap="round"/>
<path d="M1 15.4419C2.87459 15.4419 4.69221 17.0589 5.98899 18.3303C6.99417 19.3157 8.03619 20.2981 8.92112 21.3937C9.19823 21.7368 9.31297 22.2689 9.79638 22.2689C10.4584 22.2689 11.4416 17.0878 11.5323 16.8131C12.3673 14.2863 13.2428 11.976 14.479 9.636C14.6863 9.24359 14.8146 9.05975 15.1792 8.87744" stroke="#FDFDFF" stroke-width="2" stroke-linecap="round"/>
<path d="M4.93848 28.5706C7.73445 28.5706 10.5304 28.5706 13.3264 28.5706C15.786 28.5706 18.2194 28.0454 20.6932 28.0454" stroke="#FDFDFF" stroke-width="2" stroke-linecap="round"/>
<path d="M4.41309 33.5596H21.2181" stroke="#FDFDFF" stroke-width="1" stroke-linecap="round"/>
</svg>
