<svg width="56" height="24" viewBox="0 0 56 24" fill="none" xmlns="http://www.w3.org/2000/svg">
<path d="M40.434 21.1641C42.4552 21.2711 44.4815 21.5518 46.4949 21.7525C48.5773 21.9601 51.4154 19.3416 52.8184 18.1245C54.7118 16.4818 55.4141 11.1083 52.8439 9.95712C51.0173 9.13897 49.3739 8.16153 47.4743 7.49767C44.7402 6.54218 41.8747 5.69369 39.0906 4.8955C35.2879 3.80525 31.3753 3.5957 27.5152 2.82683C23.7631 2.0795 19.9665 1.79046 16.1586 1.41087C12.0116 0.997478 7.03848 3.05378 4.26355 6.18693C2.81495 7.82253 1.31687 10.492 0.861207 12.6297C0.69156 13.4256 0.885622 13.9262 1.04925 14.6988C1.21286 15.4714 0.984255 16.5166 1.29991 17.2473C1.7905 18.3831 4.48257 20.4456 5.58462 20.9392C8.87899 22.4148 13.7438 22.3669 17.3575 22.3313L17.48 22.3301C22.3729 22.2821 27.3763 23.0763 32.2436 22.3192C34.8956 21.9067 37.7456 21.0219 40.434 21.1641Z" stroke="#0000FF" stroke-linecap="round"/>
</svg>
