<svg width="60" height="31" viewBox="0 0 60 31" fill="none" xmlns="http://www.w3.org/2000/svg">
<path d="M2.52649 16.7835L44.0928 15.2999C46.6965 15.1559 51.8768 16.1831 53.1935 13.1837C54.6426 9.66233 49.2999 3.61287 47.3848 1.3452C46.1829 -0.109266 43.7898 1.62075 45.0049 3.17435C48.3991 7.46495 52.4872 11.6634 55.4121 16.2181C57.0825 18.9218 56.0579 19.5622 53.942 21.8607L47.8522 28.4192C46.5232 29.8062 48.8945 31.7107 50.2103 30.2245C52.8552 27.3515 55.6123 24.5643 58.1581 21.7044C59.2029 20.456 60.188 19.5182 59.8651 17.8462C59.5361 15.3679 56.8411 13.3047 55.3883 11.48L47.2725 1.25924L44.8926 3.08838C46.4445 4.89989 48.7956 7.4123 49.4089 9.75194C50.3389 12.9574 48.5089 12.0907 45.5946 12.175L31.7436 12.7026L2.03252 13.8227C0.221855 13.8614 0.616697 16.8353 2.52649 16.7835Z" fill="#0000FF"/>
</svg>
