<svg width="59" height="31" viewBox="0 0 59 31" fill="none" xmlns="http://www.w3.org/2000/svg">
<path d="M1 14.822C7.74756 14.822 14.3186 14.7646 21.0158 14.0797C23.7578 13.7992 26.4916 13.3375 29.2576 13.2222C31.7369 13.1189 34.2291 13.3336 36.7059 13.1582C41.7307 12.8025 46.8211 12.9791 51.8585 12.9791C52.7525 12.9791 56.7367 12.4973 57.208 13.4398" stroke="#0000FF" stroke-linecap="round"/>
<path d="M44.7686 1C47.0317 2.3373 48.5063 4.48174 50.31 6.28549C51.5745 7.54996 52.8586 8.83405 54.1238 10.0992C54.8655 10.841 58.6599 13.0644 57.8991 14.0154C56.815 15.3705 55.8334 16.599 54.8532 18.1491C53.3547 20.5189 51.9893 22.953 50.374 25.2646C49.6564 26.2915 47.9936 28.4189 47.9936 29.7951" stroke="#0000FF" stroke-linecap="round"/>
</svg>
