<svg width="142" height="36" viewBox="0 0 142 36" fill="none" xmlns="http://www.w3.org/2000/svg">
<path d="M49.7834 27.8573L47.7814 15.277C47.7732 15.2243 47.7569 15.119 47.8014 15.0581C47.8904 14.9365 47.9958 14.9202 48.1011 14.9038L49.9446 14.6184C50.682 14.5042 51.4803 14.4345 51.9914 14.9486C52.1983 15.2402 52.4053 15.5318 52.4542 15.8478C52.7264 16.5607 52.9014 17.3427 52.9629 18.0882C53.0326 18.8864 52.6646 19.6446 52.037 20.1193C51.304 20.6104 50.2706 20.5546 49.6674 21.1874C51.8647 22.1416 53.9002 23.4444 55.5715 25.1812" stroke="#0000FF" stroke-width="1.5" stroke-linecap="round" stroke-linejoin="round"/>
<path d="M61.1177 12.2402L63.3036 26.3562" stroke="#0000FF" stroke-width="1.5" stroke-linecap="round" stroke-linejoin="round"/>
<path d="M136.678 1.07956C135.247 0.546064 133.667 0.790752 132.465 1.73206C131.331 2.77056 131.082 4.64296 132.067 5.78473C133.053 6.9265 134.824 6.86803 136.384 6.84218C137.892 6.82449 139.695 6.97671 140.442 8.31728C141.189 9.65785 140.336 11.462 139.166 12.6139C137.295 14.4677 134.768 15.5602 132.146 15.6965" stroke="#0000FF" stroke-width="1.5" stroke-linecap="round" stroke-linejoin="round"/>
<path d="M112.43 6.45166L113.972 16.4066" stroke="#0000FF" stroke-width="1.5" stroke-linecap="round" stroke-linejoin="round"/>
<path d="M83.4927 22.637L81.8822 12.5849C84.8753 15.1957 88.1437 17.4942 91.5294 19.5048C92.1087 19.4151 92.0917 18.6087 91.9494 18.0375C91.075 14.829 90.1034 11.6894 89.1237 8.49717" stroke="#0000FF" stroke-width="1.5" stroke-linecap="round" stroke-linejoin="round"/>
<path d="M105.659 6.25966C103.564 6.3144 101.214 6.46259 99.6553 7.89052C98.8659 8.71391 98.3117 9.66269 97.9926 10.7369C97.3864 12.3948 97.1125 14.1092 97.2763 15.8637C97.2933 16.6701 97.6182 17.3749 98.1456 17.9943C98.7012 18.4476 99.443 18.7103 100.152 18.7623C102.985 19.2944 105.939 19.2145 108.759 18.6161" stroke="#0000FF" stroke-width="1.5" stroke-linecap="round" stroke-linejoin="round"/>
<path d="M2.85576 33.398L1.33869 23.6011L5.43449 22.5353" stroke="#0000FF" stroke-width="1.5" stroke-linecap="round" stroke-linejoin="round"/>
<path d="M3.15967 29.0903L7.00469 28.4949" stroke="#0000FF" stroke-width="1.5" stroke-linecap="round" stroke-linejoin="round"/>
<path d="M3.26953 33.981L9.32677 33.043" stroke="#0000FF" stroke-width="1.5" stroke-linecap="round" stroke-linejoin="round"/>
<path d="M24.8882 18.606L26.8457 31.2471" stroke="#0000FF" stroke-width="1.5" stroke-linecap="round" stroke-linejoin="round"/>
<path d="M24.9461 18.9742C26.0804 18.6367 27.2756 18.3438 28.4105 18.7074C29.4565 19.1926 30.2962 20.0873 30.581 21.2298C31.1944 22.7529 30.9813 24.5118 30.0102 25.9026C29.0227 27.1882 27.0011 27.717 25.671 26.7903" stroke="#0000FF" stroke-width="1.5" stroke-linecap="round" stroke-linejoin="round"/>
<path d="M123.88 4.46285L118.621 5.33115C119.046 8.77112 119.576 12.1948 120.151 15.5576L124.109 14.9985" stroke="#0000FF" stroke-width="1.5" stroke-linecap="round" stroke-linejoin="round"/>
<path d="M119.02 10.3389L122.338 9.82502" stroke="#0000FF" stroke-width="1.5" stroke-linecap="round" stroke-linejoin="round"/>
<path d="M39.4425 30.0504L37.6807 18.6734C37.5709 18.3128 37.611 17.8751 37.7728 17.5265C37.9954 17.2223 38.2343 17.0235 38.5948 16.9138L42.2077 15.1678" stroke="#0000FF" stroke-width="1.5" stroke-linecap="round" stroke-linejoin="round"/>
<path d="M38.144 24.103L42.7791 23.3853" stroke="#0000FF" stroke-width="1.5" stroke-linecap="round" stroke-linejoin="round"/>
<path d="M39.7012 29.6333L44.3363 28.9155" stroke="#0000FF" stroke-width="1.5" stroke-linecap="round" stroke-linejoin="round"/>
<path d="M74.8231 11.5747L70.4959 12.1909C70.0582 12.1508 69.7221 12.4186 69.682 12.8563C69.6457 12.9698 69.662 13.0751 69.731 13.1723C69.8962 16.3289 70.2194 19.4609 70.7533 22.5604C70.6768 23.1116 71.0217 23.5975 71.5729 23.674C71.7918 23.694 72.0551 23.6532 72.2576 23.568L75.2473 22.6735" stroke="#0000FF" stroke-width="1.5" stroke-linecap="round" stroke-linejoin="round"/>
<path d="M69.4277 18.1816L73.0621 17.6189" stroke="#0000FF" stroke-width="1.5" stroke-linecap="round" stroke-linejoin="round"/>
<path d="M11.745 20.8033C13.7796 25.2345 16.5716 29.3327 19.9222 32.8589C20.6321 33.612 21.8184 32.5653 21.1085 31.8123C17.8268 28.3832 15.1647 24.4268 13.1464 20.1009C12.7281 19.1409 11.274 19.8515 11.745 20.8033Z" fill="#0000FF"/>
<path d="M18.6574 19.463C16.5465 23.9428 14.8978 28.6208 13.8529 33.367" stroke="#0000FF" stroke-width="1.5" stroke-linecap="round" stroke-linejoin="round"/>
</svg>
