<svg width="398" height="17" viewBox="0 0 398 17" fill="none" xmlns="http://www.w3.org/2000/svg">
<path d="M1.5 8.72321C2.04938 9.48753 7.5811 10.5587 10.1857 10.6639C13.9198 10.8148 23.4115 10.9398 23.4115 9.46472C23.4115 8.99854 23.4119 8.54441 23.1154 8.0824C22.6026 7.28329 24.1145 7.1291 26.7016 6.69092C28.9575 6.30884 34.0247 5.79603 36.5716 6.19659C40.6963 6.84528 41.502 9.0085 43.2504 10.0872C48.7383 13.4732 64.0538 9.75234 68.8467 8.13733C71.7444 7.16094 73.6855 5.79668 78.7497 5.75717C83.0003 5.72401 87.0449 5.77847 89.541 6.8557C92.2419 8.02132 93.8377 9.36646 96.2197 10.5816C96.9966 10.9778 98.0271 11.6778 99.8058 11.8174C108.207 12.4767 109.94 8.22615 111.222 6.78247C111.96 5.95133 112.606 4.95534 114.94 4.32908C117.354 3.6813 123.066 4.54282 125.238 4.82342C132.08 5.70736 134.78 7.11012 137.773 8.96122C139.456 10.0023 140.331 11.5203 143.168 12.385C146.074 13.2705 148.974 10.3241 149.88 9.69358C151.812 8.34977 152.451 7.2599 156.098 6.16912C159.662 5.10323 162.649 4.60371 167.876 4.60371C172.183 4.60371 173.249 5.04314 175.411 6.05927C179.016 7.75426 181.551 9.69932 186.63 11.1125C188.676 11.682 191.516 12.4695 194.427 12.6596C199.867 13.0149 201.099 10.2764 201.665 9.40064C202.7 7.7981 202.213 5.77614 204.429 4.25585C205.223 3.7106 207.724 3.53904 209.561 3.41364C211.564 3.27694 215.989 2.86427 217.951 3.20309C222.02 3.90598 224.271 6.20436 225.485 7.38666C228.553 10.3749 232.049 14.3539 245.159 14.9482C250.655 15.1974 257.543 14.5451 259.701 13.0441C261.664 11.6787 262.23 10.2028 263.386 8.77813C263.866 8.18623 264.152 7.33647 265.755 6.87401C268.06 6.20867 275.118 5.38119 278.191 5.90364C282.928 6.70908 286.111 8.85583 288.653 10.1238C290.029 10.8104 291.636 13.5453 297.407 13.7924C303.178 13.7924 306.989 12.8067 308.92 12.0463C316.074 9.22811 315.986 6.33088 321.823 3.293C323.905 2.20953 338.248 1.5941 344.907 2.30478C351.566 3.01546 353.718 3.77275 354.98 4.25585C359.386 5.94277 362.319 7.80574 364.653 9.77597C364.977 10.0501 365.596 11.3165 366.89 11.4878C368.153 11.6552 374.277 11.62 375.094 11.4878C381.693 10.4209 384.095 7.99742 388.472 6.29728C390.269 5.59954 390.796 5.42761 393.572 5.42761C394.408 5.42761 396.5 5.64607 396.5 5.59239" stroke="#0000FF" stroke-width="1" stroke-linecap="round"/>
</svg>
