<svg width="52" height="34" viewBox="0 0 52 34" fill="none" xmlns="http://www.w3.org/2000/svg">
<path d="M1 33.3265C5.33503 29.3249 10.8266 26.4707 15.7983 23.3771C20.1156 20.6908 24.7313 18.4688 28.9803 15.6906C30.6433 14.6033 32.6833 14.043 34.4938 13.2482C36.8772 12.2018 38.7984 10.3511 41.0848 9.15351C43.0382 8.13029 48.2929 6 50.5 6" stroke="#0000FF" stroke-linecap="round"/>
<path d="M26.5381 1C33.6629 1 40.8021 3.64812 47.6939 5.34611C48.5124 5.54777 51.012 5.54517 50.7649 6.65712C50.5407 7.66614 49.1089 8.12877 48.8613 9.24324C48.2876 11.8249 47.4996 14.6657 46.7601 17.3069C46.1225 19.584 46.2864 22.6149 44.9641 24.5983" stroke="#0000FF" stroke-linecap="round"/>
</svg>
