<svg width="50" height="35" viewBox="0 0 50 35" fill="none" xmlns="http://www.w3.org/2000/svg">
<path d="M3.07116 34.6232C17.0496 24.4191 32.1994 15.8667 48.1294 9.18274C49.1115 8.74055 49.7343 6.9124 48.4142 6.46817C42.005 4.0387 35.5214 2.21294 28.8593 0.895242C28.0515 0.729465 27.2735 1.26305 27.1077 2.07084C26.942 2.87863 27.4755 3.65662 28.1834 3.82666L36.2698 5.68424C38.3934 6.19433 42.6024 6.31534 44.3562 7.54182C48.2761 10.2775 41.421 20.8788 39.7588 24.1525C39.389 24.8689 39.727 25.7553 40.4434 26.1252C41.1598 26.495 42.0462 26.157 42.4203 25.5405C44.4651 21.8501 46.2017 17.9727 47.6343 14.0082C48.3485 11.976 49.8321 9.21031 48.7394 7.05486C47.7551 5.09497 45.1405 4.80597 43.2166 4.28736C38.3657 3.1928 33.6146 2.09397 28.8636 0.99515L28.1877 3.92657C34.5458 5.15712 40.8296 6.99139 47.0304 9.22955L47.3151 6.51498C30.9812 13.116 15.6359 21.7768 1.46188 32.0893C-0.0941133 33.1565 1.51517 35.6903 3.07116 34.6232Z" fill="#0000FF"/>
</svg>
