<svg width="116" height="15" viewBox="0 0 116 15" fill="none" xmlns="http://www.w3.org/2000/svg">
<path d="M1.5 8.02531C1.96696 7.30782 2.77452 5.38799 3.6392 5.16867C4.42821 4.96854 5.50625 6.21587 6.14192 6.58901C6.55887 6.83376 9.56705 9.15434 10.0009 8.31257C10.8566 6.65215 12.3785 5.63648 13.2726 4.00367C13.2981 3.95712 18.2935 7.58377 18.9771 8.00935C19.2216 8.16157 19.7525 8.86309 20.0677 8.53599C21.0985 7.4664 21.4901 5.36783 22.2488 4.05155C22.3125 3.94102 23.4715 1.92019 23.5911 2.05669C23.6927 2.17266 23.64 2.42462 23.647 2.56737C23.6739 3.12068 24.2811 3.67779 24.5698 4.03559C26.2941 6.1725 28.3843 7.788 30.3302 9.60524C30.4776 9.74281 31.4764 10.7174 31.6445 10.5468C32.1172 10.0672 32.3659 7.591 32.5673 6.90819C32.9765 5.52091 33.4612 4.14924 34.0913 2.87059C34.5164 2.00804 34.3732 2.76356 34.7205 3.14189C36.926 5.5449 39.8289 7.43718 42.3265 9.41373C42.6109 9.63874 45.8372 12.9351 46.2414 12.5576C46.8512 11.9881 47.1919 9.71753 47.5557 8.88709C47.9942 7.88602 48.6975 6.5707 48.814 5.43997C48.8789 4.81029 49.2981 5.72228 49.4572 5.87086C50.4586 6.80604 51.6943 7.7293 52.8268 8.44024C53.4255 8.81609 53.463 9.23826 53.9034 9.68503C53.983 9.76584 55.1633 7.0968 55.3575 6.73264C55.449 6.56099 56.2131 4.82076 56.3082 4.92929C56.9905 5.70803 57.1664 6.93612 57.986 7.73805C58.5252 8.26559 59.7789 10.0361 60.5167 10.0361C61.8711 10.0361 63.0728 6.97185 64.1659 6.23791C64.6743 5.89658 65.8377 4.83439 66.1234 4.29093C66.2909 3.97226 66.1793 4.79365 66.1793 5.00908C66.1793 6.07678 67.1711 6.80841 67.6893 7.57846C68.2269 8.37737 69.8091 11.9144 70.961 11.7597C71.4178 11.6983 72.6117 8.23875 72.8486 7.73805C73.429 6.51124 74.1384 4.05155 75.3653 3.42915C75.7682 3.22475 76.2419 2.40778 76.6935 2.40778C77.2593 2.40778 76.7046 3.77785 77.0291 4.30689C78.0226 5.92694 79.1373 7.40114 80.0212 9.11051C80.3188 9.6861 80.7487 10.5474 81.1677 11.0256C81.4025 11.2936 81.6578 11.5777 81.8388 11.1852C82.6113 9.50988 84.7731 3.42887 86.1421 3.42887C87.5111 3.42887 88.3199 5.43997 90.0622 8.02531C91.1807 9.68503 92.2986 10.8958 92.8564 12.2065C92.9821 12.5021 93.2442 13.4302 93.3737 12.7651C93.6864 11.159 94.4519 9.36803 95.1214 7.92955C95.179 7.80574 97.2821 3.85373 97.3864 4.86545C97.481 5.78274 98.4169 6.82834 98.9104 7.46675C99.4181 8.12354 102.148 12.4649 102.56 11.6958C104.174 8.68099 104.922 5.19839 106.447 2.15244C106.927 1.19264 108.75 5.05827 109.075 5.5836C109.279 5.91276 111.308 10.0306 111.34 10.0202C111.74 9.88987 112.3 8.37264 112.543 8.02531C113.178 7.11519 114.18 5.96262 114.5 4.86545" stroke="#FF8000" stroke-width="1" stroke-linecap="round"/>
</svg>
