<svg width="135" height="38" viewBox="0 0 135 38" fill="none" xmlns="http://www.w3.org/2000/svg">
<path d="M114.713 16.5223L113.115 5.9285C115.467 10.1386 118.266 14.1145 121.489 17.6985C121.639 12.5995 121.247 7.4801 120.337 2.49802" stroke="#0000FF" stroke-width="1.5" stroke-linecap="round" stroke-linejoin="round"/>
<path d="M42.3738 28.9297C41.9759 24.7828 42.1127 20.6039 42.6958 16.515C45.4924 19.4657 47.8052 22.7643 49.529 26.4277" stroke="#0000FF" stroke-width="1.5" stroke-linecap="round" stroke-linejoin="round"/>
<path d="M43.4165 25.6846L47.6788 24.9981" stroke="#0000FF" stroke-width="1.5" stroke-linecap="round" stroke-linejoin="round"/>
<path d="M1.07129 21.5449L3.54594 36.9103" stroke="#0000FF" stroke-width="1.5" stroke-linecap="round" stroke-linejoin="round"/>
<path d="M7.10424 35.2035L5.53716 22.1213C7.72422 25.98 10.6582 29.4485 14.0778 32.2449C13.9328 28.3273 14.0508 24.3673 14.4489 20.4701" stroke="#0000FF" stroke-width="1.5" stroke-linecap="round" stroke-linejoin="round"/>
<path d="M32.7456 19.0898L34.3897 29.2984" stroke="#0000FF" stroke-width="1.5" stroke-linecap="round" stroke-linejoin="round"/>
<path d="M28.7461 19.7339L36.8498 18.4288" stroke="#0000FF" stroke-width="1.5" stroke-linecap="round" stroke-linejoin="round"/>
<path d="M51.4008 13.9256C52.1194 18.7226 52.899 23.5638 53.7755 28.3353L59.4742 26.1759" stroke="#0000FF" stroke-width="1.5" stroke-linecap="round" stroke-linejoin="round"/>
<path d="M64.7708 11.1242L67.1353 25.8055C67.1251 26.0771 67.2727 26.3233 67.4203 26.5694C67.7343 26.8428 68.1994 26.7139 68.6034 26.5409L71.7914 25.2176" stroke="#0000FF" stroke-width="1.5" stroke-linecap="round" stroke-linejoin="round"/>
<path d="M24.196 18.3068C23.1659 17.609 21.9587 18.8291 21.4357 19.9391C20.7173 21.5124 20.279 23.1486 20.0766 24.9088C22.0847 24.6393 24.0959 25.3951 25.4196 26.9095C26.6906 28.4324 26.8173 30.8953 25.4947 32.404C24.1721 33.9127 21.4986 34.0733 20.2718 32.4894" stroke="#0000FF" stroke-width="1.5" stroke-linecap="round" stroke-linejoin="round"/>
<path d="M98.333 7.66211L100.248 19.5545" stroke="#0000FF" stroke-width="1.5" stroke-linecap="round" stroke-linejoin="round"/>
<path d="M102.463 8.50845C103.191 10.0108 103.05 11.8151 103.163 13.5244C103.277 15.2337 103.792 17.0942 105.277 17.9347C107.059 18.9434 109.555 17.6777 110.214 15.7361C110.873 13.7944 110.026 11.5553 108.606 10.1105C107.185 8.6657 105.218 7.84879 103.277 7.18976C102.513 7.47474 102.777 8.7818 103.477 9.10107C104.176 9.42035 105.098 9.10993 105.792 8.72818C106.732 8.19881 107.603 7.57267 108.396 6.79714" stroke="#0000FF" stroke-width="1.5" stroke-linecap="round" stroke-linejoin="round"/>
<path d="M127.558 2.41606C125.213 3.2795 124.225 6.192 126.142 8.04261C127.485 9.33803 129.162 8.69001 130.71 9.25051C132.432 9.89083 132.447 11.9939 131.179 13.1699C130.043 14.1626 128.353 14.057 127.014 13.7868C126.007 13.571 125.832 15.1648 126.838 15.3806C129.849 15.9754 133.808 14.744 133.758 11.081C133.782 9.88944 133.166 8.74695 132.188 8.04061C131.481 7.66872 130.746 7.46316 129.94 7.48504C129.239 7.48997 128.108 7.51008 127.497 7.06862C126.206 6.08892 126.837 4.31359 128.216 3.82166C129.19 3.50277 128.523 2.04455 127.558 2.41606Z" fill="#0000FF"/>
<path d="M76.6476 21.5208L75.3527 13.1455L74.0778 13.9447L83.8362 20.9029C84.6916 21.521 85.6102 20.1853 84.7633 19.6199L75.0049 12.6617C74.6383 12.3968 74.1205 12.5342 73.9083 12.8923C73.7758 13.0756 73.7487 13.2419 73.7825 13.4524L75.0774 21.8277C75.1452 22.2486 75.5729 22.5577 75.9939 22.4899C76.4148 22.4221 76.768 21.9333 76.6476 21.5208Z" fill="#0000FF"/>
<path d="M77.1778 20.7875L81.8611 20.0332C82.2821 19.9654 82.5911 19.5377 82.5233 19.1168C82.4555 18.6958 82.0279 18.3868 81.6069 18.4546L76.9236 19.2088C76.5026 19.2766 76.1936 19.7043 76.2614 20.1253C76.3292 20.5462 76.7569 20.8553 77.1778 20.7875Z" fill="#0000FF"/>
<path d="M83.4149 11.5405C86.7847 10.1488 90.023 8.38239 93.0051 6.28497" stroke="#0000FF" stroke-width="1.5" stroke-linecap="round" stroke-linejoin="round"/>
<path d="M88.4585 10.123L92.5749 21.866" stroke="#0000FF" stroke-width="1.5" stroke-linecap="round" stroke-linejoin="round"/>
</svg>
