<?xml version="1.0" encoding="utf-8"?>
<!-- Generator: Adobe Illustrator 25.0.0, SVG Export Plug-In . SVG Version: 6.00 Build 0)  -->
<svg version="1.1" id="Capa_1" xmlns="http://www.w3.org/2000/svg" xmlns:xlink="http://www.w3.org/1999/xlink" x="0px" y="0px"
	 viewBox="0 0 397.6 49" style="enable-background:new 0 0 397.6 49;" xml:space="preserve">
<style type="text/css">
	.st0{fill:none;stroke:#0000FF;stroke-linecap:round;}
</style>
<path class="st0" d="M2.3,20.5c-0.7-5.6,0-10.7,0-16.3c10.3,0,21.2-0.8,31.8-0.8h71.6c5.9,0,11.8-0.2,17.7,0.1
	c7.5,0.4,101.7-0.2,109.2,0c5.8,0.1,53.7-0.8,63.2-0.8c11.5-0.9,24.2-0.5,35.8-0.5c19.3,0,38.4,0.4,57.6,0.4c0.6,0,4.8-0.4,5.5,0.1
	c0.7,0.5,0.1,2.6,0.1,3.2v11.1v21.7c0,0.2,0.3,8.4,0,8.5c-5.4,0-71.8-1.5-84-1.5c-43.3,0-68.1-0.4-73.3,0
	c-1.9-0.2-152.3,0.5-171-0.5c-18.7-1-63.2,0.4-63.2-1.5C3.4,37.9,3,26,2.3,20.5z"/>
</svg>
