<svg width="329" height="49" viewBox="0 0 329 49" fill="none" xmlns="http://www.w3.org/2000/svg">
<path d="M2.25154 20.487C1.68532 14.8597 2.25199 9.82601 2.25199 4.14065C10.8056 4.14065 19.7696 3.31992 28.505 3.31992H87.7236C92.5838 3.31992 97.5125 3.10104 102.36 3.41111C108.575 3.80869 186.421 3.25144 192.65 3.41111C197.406 3.53301 237.083 2.59038 244.931 2.59038C254.476 1.6877 264.908 2.08881 274.517 2.08881C290.443 2.08881 306.231 2.49918 322.145 2.49918C322.643 2.49918 326.154 2.10496 326.727 2.59037C327.27 3.04915 326.835 5.21837 326.835 5.78212V16.8393V38.5431C326.835 38.7897 327.097 46.9754 326.835 47C322.396 47 267.506 45.4925 257.407 45.4925C221.637 45.4925 201.085 45.0508 196.809 45.4925C195.257 45.3067 70.8605 45.995 55.4141 44.99C39.9676 43.9851 3.13366 45.4331 3.13366 43.4826C3.13366 37.9244 2.8111 26.048 2.25154 20.487Z" stroke="#0000FF" stroke-width="3" stroke-linecap="round"/>
</svg>
