<svg width="366" height="166" viewBox="0 0 366 166" fill="none" xmlns="http://www.w3.org/2000/svg">
<path d="M43.5671 8.33933C48.7468 22.5974 95.0941 27.6027 97.9053 9.31252C98.4588 5.71171 96.4673 -2.09351 100.822 4.66283C109.675 18.3975 120.1 29.0414 136.471 31.2634C143.196 32.176 149.417 32.7948 154.404 27.8031C159.685 22.5171 161.924 32.6314 168.124 36.5618C178.525 43.1558 194.925 43.1138 205.394 36.2375C219.691 26.8456 217.726 26.6181 235.425 31.0471C248.742 34.3793 272.682 43.874 286.847 37.7513C295.953 33.8155 303.419 24.865 309.101 16.9899C311.732 13.343 311.011 12.6706 312.234 16.3411C315.302 25.5553 328.389 35.907 334.379 42.5091C339.458 48.1058 351.75 67.4064 360.954 68.6771C370.014 69.9279 359.093 67.8728 357.065 74.5163C354.458 83.0559 354.227 95.8443 354.797 104.685C355.165 110.395 364.723 136.341 353.176 133.773C339.263 130.678 326.13 125.801 311.909 123.5C306.506 122.626 294.383 119.046 288.575 121.662C286.494 122.599 286.647 125.58 285.659 127.285C279.245 138.342 270.4 148.033 262.216 157.778C253.851 167.74 259.032 164.106 253.142 158.211C246.279 151.341 232.837 145.742 223.218 144.802C215.694 144.067 207.247 141.447 206.906 149.993C206.691 155.382 173.147 152.399 169.744 152.372C146.122 152.179 204.261 134.854 175.794 134.854C166.095 134.854 156.313 134.45 146.626 134.854C134.574 135.357 123.17 142.062 111.625 142.64C105.533 142.944 97.3544 143.978 91.5316 142.423C82.0291 139.887 75.7835 122.114 66.145 117.661C61.4649 115.499 52.4465 117.337 47.4561 117.337C39.1581 117.337 5.01546 122.845 1.65206 116.904C-1.63624 111.096 49.4465 71.7044 54.1538 66.7308C57.824 62.853 64.2343 58.7073 61.7158 52.8898C58.0928 44.521 53.5894 39.2062 44.3233 37.7513C37.8057 36.728 16.6257 34.8711 31.0358 24.9917C34.3495 22.7198 46.437 14.0848 49.4006 20.0176" stroke="#FF8000" stroke-width="1" stroke-linecap="round"/>
</svg>
