<svg width="472" height="12" viewBox="0 0 472 12" fill="none" xmlns="http://www.w3.org/2000/svg">
<path d="M7.54539 4.63636C105.15 4.63636 202.804 5.54545 300.452 5.54545C355.16 5.54545 409.743 1 464.45 1C465.465 1 475.005 1 471.041 1C469.39 1 467.738 1 466.087 1C451.132 1 436.178 1 421.223 1C403.996 1 386.769 1 369.542 1C341.854 1 314.754 8.71484 287.043 9.23232C235.87 10.1879 183.698 13.0272 132.726 7.36364C124.939 6.49843 117.712 4.63636 109.817 4.63636C101.651 4.63636 93.5924 4.60523 85.4538 5.34343C75.331 6.26161 65.3618 4.68714 55.3631 6.90909C37.4442 10.8911 19.2321 11 1 11" stroke="#0000FF" stroke-width="1" stroke-linecap="round"/>
</svg>
