<svg width="95" height="47" viewBox="0 0 95 47" fill="none" xmlns="http://www.w3.org/2000/svg">
<path d="M72.5817 27.4577L81.3312 29.8724" stroke="#0000FF" stroke-width="1.5" stroke-linecap="round" stroke-linejoin="round"/>
<path d="M78.3511 29.3652L75.1571 38.7503" stroke="#0000FF" stroke-width="1.5" stroke-linecap="round" stroke-linejoin="round"/>
<path d="M49.2116 20.8559C48.0127 23.8823 46.8979 29.6398 51.5613 30.4949C56.0735 31.2986 57.4385 25.9641 57.8472 22.6125C57.9717 21.5852 56.371 21.4908 56.2466 22.5182C55.9967 24.7415 55.105 29.843 51.6052 28.8771C48.3749 27.9467 49.9204 23.4055 50.7253 21.3711C51.1021 20.4296 49.5883 19.9144 49.2116 20.8559Z" fill="#0000FF"/>
<path d="M15.3194 17.7103L16.6759 13.7241C16.9679 12.8664 17.3531 10.5765 18.1474 10.2275C18.6713 10.0117 21.1276 10.735 21.1405 11.3588C21.1374 11.8644 18.7178 13.3493 18.3281 13.6671C18.0061 13.9516 17.9524 14.4401 18.2369 14.7621C19.3428 15.8141 20.3466 17.0002 21.1476 18.2862C21.6984 19.1493 23.1186 18.4503 22.5678 17.5872C21.7003 16.166 20.6298 14.8445 19.4231 13.7582L19.332 14.8533C20.4323 14.1017 22.9356 12.7016 22.9118 11.1171C22.8881 9.53253 20.7496 9.19885 19.5891 8.8039C18.3276 8.3746 17.1671 7.97964 16.4168 9.35705C15.8029 10.4993 15.4906 11.9132 15.1118 13.1918L13.7552 17.1779C13.6178 17.5816 13.8508 18.055 14.2545 18.1924C14.6581 18.3298 15.182 18.1139 15.3194 17.7103Z" fill="#0000FF"/>
<path d="M28.9326 15.9246C28.0986 17.2172 27.2807 18.6279 27.2035 20.1781C27.1264 21.7283 28.1775 23.4373 29.7277 23.5144C31.7159 23.628 32.86 21.2587 33.4117 19.3069C33.8248 17.9274 34.1876 16.5307 33.8761 15.1298C33.5647 13.7289 32.3085 12.4568 30.9087 12.5997C29.4916 12.7931 28.6737 14.2038 28.0254 15.447" stroke="#0000FF" stroke-width="1.5" stroke-linecap="round" stroke-linejoin="round"/>
<path d="M40.659 16.5381C39.3915 19.7663 38.4267 23.0976 37.8322 26.4986" stroke="#0000FF" stroke-width="1.5" stroke-linecap="round" stroke-linejoin="round"/>
<path d="M41.0676 15.8325C44.3848 16.3421 46.6406 19.4745 46.131 22.7917C45.9732 23.7515 45.5965 24.693 45.0019 25.4477C44.6959 25.8503 44.3396 26.2358 43.9166 26.4859C42.3601 27.42 40.4438 26.599 38.8473 25.8305" stroke="#0000FF" stroke-width="1.5" stroke-linecap="round" stroke-linejoin="round"/>
<path d="M91.299 30.5272C90.278 29.3915 88.7643 28.8763 87.2453 29.2039C85.81 29.6162 84.6711 31.1429 85.0159 32.6114C85.3606 34.08 86.957 34.8485 88.3516 35.5483C89.7462 36.2481 91.2234 37.2013 91.2644 38.7354C91.3053 40.2694 89.7133 41.473 88.1428 41.9519C85.6265 42.7283 82.8804 42.5257 80.4939 41.432" stroke="#0000FF" stroke-width="1.5" stroke-linecap="round" stroke-linejoin="round"/>
<path d="M67.8398 25.6752C66.2434 24.9067 64.4108 24.1704 62.7716 24.8512C61.3353 25.4321 60.483 26.9437 59.7832 28.3383C59.2895 29.1274 59.0985 30.0195 59.076 30.9127C59.1867 32.0764 60.1078 33.0092 61.0988 33.5716C62.4257 34.3047 63.9748 34.5504 65.4938 34.2229" stroke="#0000FF" stroke-width="1.5" stroke-linecap="round" stroke-linejoin="round"/>
<path d="M1.00028 16.4406L5.77408 2.41349C5.84277 2.21166 5.92863 1.95938 6.09823 1.79189C6.58987 1.33989 7.37896 1.83365 7.88141 2.34245C8.73496 3.30855 9.48652 4.40885 10.0524 5.55855C10.5527 6.40445 10.7321 7.36631 10.6248 8.34323C10.3308 9.5381 9.1285 10.4239 7.93046 10.6355C6.68197 10.8299 5.41842 10.7377 4.1731 10.4265" stroke="#0000FF" stroke-width="1.5" stroke-linecap="round" stroke-linejoin="round"/>
</svg>
