<svg width="802" height="32" viewBox="0 0 802 32" fill="none" xmlns="http://www.w3.org/2000/svg">
<path d="M1.15245 19.1179C16.6106 14.8429 31.8308 9.5741 47.7067 5.87914C50.5025 5.22843 63.4472 1.66661 61.035 5.14203C56.8891 11.115 53.1839 15.5832 51.5053 22.0833C51.1683 23.3882 49.2402 27.1264 49.2771 25.8015C49.3682 22.5282 54.8117 19.8286 58.4449 17.8444C68.3216 12.4505 76.0519 5.441 89.4839 3.97838C97.3375 3.12321 94.4615 13.7537 93.9872 14.5318C93.3812 15.5262 88.7174 24.3094 91.6539 22.0273C99.7665 15.7224 119.18 1.93698 126.584 2.14301C133.964 3.21715 131.245 28.8989 134.736 25.051C140.429 18.7768 143.436 17.8759 153.49 11.6253C163.511 6.55968 173.215 3.59194 185.262 1.69017C193.071 0.457474 182.282 7.27164 180.744 8.60342C178.269 10.7461 170.55 20.2576 174.618 22.511C180.976 21.8258 214.689 8.66012 220.883 7.63471C228.605 6.35623 231.025 4.82829 230.889 9.73807C230.782 13.5588 230.676 17.3795 230.57 21.2002C230.439 25.8892 278.587 5.08853 279.181 6.3892C280.677 9.66935 279.077 14.14 278.984 17.4636C278.751 25.8453 286.955 22.9888 291.599 19.1197C294.431 16.7602 325.608 2.44136 327.487 6.5602C329.163 10.2352 325.352 14.9448 325.246 18.7509C325.21 20.0458 322.826 35.2121 324.93 30.1235C327.155 24.7422 377.893 -2.34544 379.946 2.15411C381.707 6.01491 377.745 12.923 377.624 17.2755C377.521 20.968 382.29 20.4891 387.933 18.9286C403.391 14.6535 414.741 9.43042 430.617 5.73546C433.413 5.08476 446.357 1.52293 443.945 4.99835C439.799 10.9713 436.094 15.4395 434.415 21.9396C434.408 21.968 434.4 21.9976 434.391 22.0283M434.391 22.0283C433.995 23.405 432.151 26.9539 432.187 25.6578C432.224 24.3539 433.109 23.1411 434.391 22.0283ZM434.391 22.0283C436.328 20.3473 439.169 18.8946 441.355 17.7007C451.232 12.3068 458.962 5.29732 472.394 3.8347C480.248 2.97953 477.372 13.61 476.897 14.3881C476.291 15.3825 471.628 24.1657 474.564 21.8836C482.677 15.5787 502.09 1.7933 509.495 1.99933C516.875 3.07347 514.155 28.7552 517.646 24.9074C523.34 18.6331 526.346 17.7322 536.4 11.4816C546.421 6.416 556.125 3.44826 568.173 1.54649C575.982 0.313793 565.192 7.12796 563.654 8.45974C561.179 10.6025 553.46 20.114 557.529 22.3673C563.887 21.6822 597.599 8.51644 603.793 7.49103C611.515 6.21254 613.936 4.68461 613.799 9.59439L613.48 21.0565C613.35 25.7455 661.498 4.94485 662.091 6.24551C663.587 9.52567 661.987 13.9963 661.895 17.32C661.661 25.7016 669.865 22.8452 674.509 18.976C677.341 16.6165 708.518 2.29768 710.397 6.41652C712.073 10.0915 708.262 14.8011 708.156 18.6072C708.12 19.9021 705.736 35.0684 707.84 29.9798C710.065 24.5985 760.803 -2.48913 762.856 2.01043C764.617 5.87123 760.655 12.7793 760.534 17.1318C760.431 20.8243 764.029 20.7262 766.999 17.8983C772.769 12.4037 790.231 7.86403 801.071 7.11473" stroke="#0000FF" stroke-width="3"  stroke-linecap="round"/>
</svg>
