<svg width="148" height="8" viewBox="0 0 148 8" fill="none" xmlns="http://www.w3.org/2000/svg">
<path d="M0.903809 4.79129C8.21268 4.79129 15.5215 4.79129 22.8304 4.79129C28.5831 4.79129 33.9776 4.1062 39.7377 3.73459C44.6975 3.4146 49.5553 2.34775 54.5315 2.04386C59.8358 1.71994 65.2021 1.93819 70.5142 1.93819C76.8896 1.93819 83.2651 1.93819 89.6405 1.93819C108.142 1.93819 126.696 1.46267 145.144 1.46267C145.502 1.46267 148.539 1.37462 146.993 1.83252C144.587 2.54557 141.574 2.76376 139.094 3.1534C131.636 4.32546 124.198 5.31461 116.745 6.19142C108.489 7.16266 99.9967 6.69336 91.6483 6.69336C85.176 6.69336 78.7036 6.69336 72.2313 6.69336C69.3521 6.69336 66.6866 6.65788 63.8305 6.13859C57.7179 5.0272 51.1186 4.08354 45.1269 2.41371C37.5163 0.292717 29.4126 0.987156 21.5624 0.987156C15.3102 0.987156 -3.44629 0.987156 2.80588 0.987156" stroke="#0000FF" stroke-linecap="round"/>
</svg>
