<svg width="139" height="11" viewBox="0 0 139 11" fill="none" xmlns="http://www.w3.org/2000/svg">
<path d="M1.41113 4.4809C1.41113 5.65349 3.17274 7.50208 4.41324 7.22641C4.57182 7.19117 8.24524 0.852161 8.33907 3.19794C8.40737 4.9054 8.41714 9.56138 10.8793 9.56138C11.992 9.56138 12.0309 9.2903 12.5985 8.32975C13.9314 6.07407 15.4938 3.99319 16.8579 1.76104C17.9396 -0.00912631 17.5763 2.49112 17.5763 3.3519C17.5763 4.73567 17.0857 7.9042 18.5 8.89425C19.6628 9.70818 20.7833 4.8407 21.1686 4.32694C21.1983 4.28728 21.4369 4.98709 21.4765 5.04539C22.1785 6.07992 23.2838 6.91714 24.2477 7.68827C24.8155 8.1425 26.5579 10.0374 27.4807 9.51007C28.2578 9.06602 28.6295 5.46766 29.1229 4.4809C29.865 2.99673 32.8358 10.5989 33.6389 7.97052C34.1417 6.32477 34.411 3.69336 35.589 2.37685C35.822 2.11639 38.1104 6.41252 38.7963 6.96982C42.2012 9.73624 42.62 4.78788 44.0051 2.17158C44.1774 1.84621 47.6975 9.74279 48.752 6.79021C49.3459 5.12738 48.6095 7.63094 49.4448 8.07316C50.2892 8.52017 52.6204 2.64935 53.4733 2.2229C53.4792 2.21995 53.8355 4.10507 53.8838 4.24996C54.1627 5.08666 54.6422 5.86905 55.2181 6.53362C55.7495 7.14671 56.9357 8.40062 57.3991 7.14943C59.0254 2.75843 58.63 5.80033 60.7605 7.45734C62.3569 8.69899 62.0017 1.98856 63.7626 4.58353C64.4632 5.61606 65.9123 7.85808 67.2265 8.15014C68.9134 8.52499 69.425 5.02547 69.7668 4.01903C70.54 1.7424 70.5737 2.54372 71.5629 4.17299C72.7337 6.10125 74.462 9.55219 77.1053 9.741C78.1951 9.81884 79.1253 4.06223 79.4916 3.14663C80.1813 1.42225 80.7968 -0.581394 81.416 1.70972C81.5433 2.18081 82.5809 5.16633 83.1608 4.84012C83.3491 4.73419 84.47 1.62734 84.9569 2.47949C85.3 3.07983 85.2273 5.66121 86.3938 5.66121C87.3016 5.66121 87.0851 3.78844 88.0104 3.58283C89.8816 3.167 88.9711 8.06387 90.5506 7.14943C91.3388 6.69313 91.9192 3.76244 92.7573 3.76244C93.2766 3.76244 94.1987 7.80583 94.9383 8.38107C96.8422 9.8619 98.8535 2.04871 99.8905 4.01903C100.604 5.37402 101.381 7.57279 102.79 8.35541C103.856 8.94754 105.137 4.50567 105.33 3.96771C105.883 2.43102 105.991 4.59213 106.151 5.19935C106.811 7.69038 107.99 3.53732 108.281 2.76174C109.4 -0.22166 109.613 4.86313 110.873 6.12307C111.806 7.05632 113.133 2.76769 113.592 2.27422C116.826 -1.20096 117.403 5.01378 118.955 6.73889C119.612 7.46888 122.36 -0.478345 122.907 4.71183C123.44 9.77973 126.865 2.91243 127.756 2.12026C127.984 1.91792 128.161 3.93921 128.167 3.96771C128.422 5.21635 128.831 6.40957 129.244 7.6113C129.673 8.85696 130.087 8.67272 130.553 7.63696C131.108 6.40324 131.699 4.67852 132.811 3.81376C133.478 3.2949 133.99 4.48042 134.428 4.94276C135.224 5.78355 135.554 6.92204 136.07 5.30198C136.565 3.74667 136.744 2.16699 138.122 1.24786" stroke="#0000FF" stroke-width="1" stroke-linecap="round"/>
</svg>
